<svg width="108" height="20" viewBox="0 0 108 20" fill="none" xmlns="http://www.w3.org/2000/svg">
<path d="M9.52447 1.46353C9.67415 1.00287 10.3259 1.00287 10.4755 1.46353L12.1329 6.56434C12.1998 6.77035 12.3918 6.90983 12.6084 6.90983H17.9717C18.4561 6.90983 18.6575 7.52964 18.2656 7.81434L13.9266 10.9668C13.7514 11.0941 13.678 11.3198 13.745 11.5258L15.4023 16.6266C15.552 17.0873 15.0248 17.4704 14.6329 17.1857L10.2939 14.0332C10.1186 13.9059 9.88135 13.9059 9.70611 14.0332L5.3671 17.1857C4.97524 17.4704 4.448 17.0873 4.59768 16.6266L6.25503 11.5258C6.32197 11.3198 6.24864 11.0941 6.07339 10.9668L1.73438 7.81434C1.34253 7.52964 1.54392 6.90983 2.02828 6.90983H7.39159C7.6082 6.90983 7.80018 6.77035 7.86712 6.56434L9.52447 1.46353Z" fill="#FFA534"/>
<path d="M31.5245 1.46353C31.6741 1.00287 32.3259 1.00287 32.4755 1.46353L34.1329 6.56434C34.1998 6.77035 34.3918 6.90983 34.6084 6.90983H39.9717C40.4561 6.90983 40.6575 7.52964 40.2656 7.81434L35.9266 10.9668C35.7514 11.0941 35.678 11.3198 35.745 11.5258L37.4023 16.6266C37.552 17.0873 37.0248 17.4704 36.6329 17.1857L32.2939 14.0332C32.1186 13.9059 31.8814 13.9059 31.7061 14.0332L27.3671 17.1857C26.9752 17.4704 26.448 17.0873 26.5977 16.6266L28.255 11.5258C28.322 11.3198 28.2486 11.0941 28.0734 10.9668L23.7344 7.81434C23.3425 7.52964 23.5439 6.90983 24.0283 6.90983H29.3916C29.6082 6.90983 29.8002 6.77035 29.8671 6.56434L31.5245 1.46353Z" fill="#FFA534"/>
<path d="M53.5245 1.46353C53.6741 1.00287 54.3259 1.00287 54.4755 1.46353L56.1329 6.56434C56.1998 6.77035 56.3918 6.90983 56.6084 6.90983H61.9717C62.4561 6.90983 62.6575 7.52964 62.2656 7.81434L57.9266 10.9668C57.7514 11.0941 57.678 11.3198 57.745 11.5258L59.4023 16.6266C59.552 17.0873 59.0248 17.4704 58.6329 17.1857L54.2939 14.0332C54.1186 13.9059 53.8814 13.9059 53.7061 14.0332L49.3671 17.1857C48.9752 17.4704 48.448 17.0873 48.5977 16.6266L50.255 11.5258C50.322 11.3198 50.2486 11.0941 50.0734 10.9668L45.7344 7.81434C45.3425 7.52964 45.5439 6.90983 46.0283 6.90983H51.3916C51.6082 6.90983 51.8002 6.77035 51.8671 6.56434L53.5245 1.46353Z" fill="#FFA534"/>
<path d="M75.5245 1.46353C75.6741 1.00287 76.3259 1.00287 76.4755 1.46353L78.1329 6.56434C78.1998 6.77035 78.3918 6.90983 78.6084 6.90983H83.9717C84.4561 6.90983 84.6575 7.52964 84.2656 7.81434L79.9266 10.9668C79.7514 11.0941 79.678 11.3198 79.745 11.5258L81.4023 16.6266C81.552 17.0873 81.0248 17.4704 80.6329 17.1857L76.2939 14.0332C76.1186 13.9059 75.8814 13.9059 75.7061 14.0332L71.3671 17.1857C70.9752 17.4704 70.448 17.0873 70.5977 16.6266L72.255 11.5258C72.322 11.3198 72.2486 11.0941 72.0734 10.9668L67.7344 7.81434C67.3425 7.52964 67.5439 6.90983 68.0283 6.90983H73.3916C73.6082 6.90983 73.8002 6.77035 73.8671 6.56434L75.5245 1.46353Z" fill="#FFA534"/>
<path d="M97.5245 1.46353C97.6741 1.00287 98.3259 1.00287 98.4755 1.46353L100.133 6.56434C100.2 6.77035 100.392 6.90983 100.608 6.90983H105.972C106.456 6.90983 106.657 7.52964 106.266 7.81434L101.927 10.9668C101.751 11.0941 101.678 11.3198 101.745 11.5258L103.402 16.6266C103.552 17.0873 103.025 17.4704 102.633 17.1857L98.2939 14.0332C98.1186 13.9059 97.8814 13.9059 97.7061 14.0332L93.3671 17.1857C92.9752 17.4704 92.448 17.0873 92.5977 16.6266L94.255 11.5258C94.322 11.3198 94.2486 11.0941 94.0734 10.9668L89.7344 7.81434C89.3425 7.52964 89.5439 6.90983 90.0283 6.90983H95.3916C95.6082 6.90983 95.8002 6.77035 95.8671 6.56434L97.5245 1.46353Z" fill="#FFA534"/>
</svg>
