<svg width="15" height="15" viewBox="0 0 15 15" fill="none" xmlns="http://www.w3.org/2000/svg">
<path d="M3.75 3.75C3.00408 3.75 2.28871 4.04632 1.76126 4.57376C1.23382 5.10121 0.9375 5.81658 0.9375 6.5625V12.1875H6.5625V6.5625C6.5625 5.81658 6.26618 5.10121 5.73874 4.57376C5.21129 4.04632 4.49592 3.75 3.75 3.75ZM3.75 2.8125H11.25C12.2446 2.8125 13.1984 3.20759 13.9017 3.91085C14.6049 4.61411 15 5.56794 15 6.5625V12.1875C15 12.4361 14.9012 12.6746 14.7254 12.8504C14.5496 13.0262 14.3111 13.125 14.0625 13.125H0.9375C0.68886 13.125 0.450403 13.0262 0.274587 12.8504C0.0987721 12.6746 0 12.4361 0 12.1875V6.5625C0 5.56794 0.395088 4.61411 1.09835 3.91085C1.80161 3.20759 2.75544 2.8125 3.75 2.8125ZM6.23063 3.75C6.63008 4.10154 6.94993 4.53426 7.16883 5.01926C7.38773 5.50426 7.50063 6.03039 7.5 6.5625V12.1875H14.0625V6.5625C14.0625 5.81658 13.7662 5.10121 13.2387 4.57376C12.7113 4.04632 11.9959 3.75 11.25 3.75H6.23063Z" fill="white"/>
<path d="M11.0559 7.96875H8.4375V7.03125H13.125C13.2493 7.03125 13.3685 7.08064 13.4565 7.16854C13.5444 7.25645 13.5938 7.37568 13.5938 7.5V8.4375C13.5938 8.56182 13.5444 8.68105 13.4565 8.76896C13.3685 8.85686 13.2493 8.90625 13.125 8.90625H12.1875C12.1259 8.90636 12.0649 8.89433 12.0079 8.87084C11.951 8.84736 11.8992 8.81288 11.8556 8.76937L11.0559 7.96875ZM4.6875 6.5625C4.6875 7.08 4.2675 6.5625 3.75 6.5625C3.2325 6.5625 2.8125 7.08 2.8125 6.5625C2.8125 6.31386 2.91127 6.0754 3.08709 5.89959C3.2629 5.72377 3.50136 5.625 3.75 5.625C3.99864 5.625 4.2371 5.72377 4.41291 5.89959C4.58873 6.0754 4.6875 6.31386 4.6875 6.5625Z" fill="white"/>
</svg>
