<svg width="42" height="16" viewBox="0 0 42 16" fill="none" xmlns="http://www.w3.org/2000/svg">
<path d="M36.75 3.00494C36.75 3.64312 36.5129 4.25516 36.091 4.70642C35.669 5.15768 35.0967 5.41119 34.5 5.41119C33.9033 5.41119 33.331 5.15768 32.909 4.70642C32.4871 4.25516 32.25 3.64312 32.25 3.00494C32.25 2.36677 32.4871 1.75473 32.909 1.30347C33.331 0.852209 33.9033 0.598694 34.5 0.598694C35.0967 0.598694 35.669 0.852209 36.091 1.30347C36.5129 1.75473 36.75 2.36677 36.75 3.00494ZM30 10.2237C30.5967 10.2237 31.169 9.97018 31.591 9.51892C32.0129 9.06766 32.25 8.45562 32.25 7.81744C32.25 7.17927 32.0129 6.56723 31.591 6.11597C31.169 5.66471 30.5967 5.41119 30 5.41119C29.4033 5.41119 28.831 5.66471 28.409 6.11597C27.9871 6.56723 27.75 7.17927 27.75 7.81744C27.75 8.45562 27.9871 9.06766 28.409 9.51892C28.831 9.97018 29.4033 10.2237 30 10.2237ZM41.25 7.81744C41.25 8.45562 41.0129 9.06766 40.591 9.51892C40.169 9.97018 39.5967 10.2237 39 10.2237C38.4033 10.2237 37.831 9.97018 37.409 9.51892C36.9871 9.06766 36.75 8.45562 36.75 7.81744C36.75 7.17927 36.9871 6.56723 37.409 6.11597C37.831 5.66471 38.4033 5.41119 39 5.41119C39.5967 5.41119 40.169 5.66471 40.591 6.11597C41.0129 6.56723 41.25 7.17927 41.25 7.81744ZM34.5 15.0362C35.0967 15.0362 35.669 14.7827 36.091 14.3314C36.5129 13.8802 36.75 13.2681 36.75 12.6299C36.75 11.9918 36.5129 11.3797 36.091 10.9285C35.669 10.4772 35.0967 10.2237 34.5 10.2237C33.9033 10.2237 33.331 10.4772 32.909 10.9285C32.4871 11.3797 32.25 11.9918 32.25 12.6299C32.25 13.2681 32.4871 13.8802 32.909 14.3314C33.331 14.7827 33.9033 15.0362 34.5 15.0362ZM5.25 0.598694H9.75V5.41119H14.25V10.2237H9.75V15.0362H5.25V10.2237H0.75V5.41119H5.25V0.598694Z" fill="#61A146"/>
</svg>
