<svg width="60" height="60" viewBox="0 0 60 60" fill="none" xmlns="http://www.w3.org/2000/svg">
<path d="M30 60C37.9565 60 45.5871 56.8393 51.2132 51.2132C56.8393 45.5871 60 37.9565 60 30C60 22.0435 56.8393 14.4129 51.2132 8.7868C45.5871 3.16071 37.9565 0 30 0C22.0435 0 14.4129 3.16071 8.7868 8.7868C3.16071 14.4129 0 22.0435 0 30C0 37.9565 3.16071 45.5871 8.7868 51.2132C14.4129 56.8393 22.0435 60 30 60ZM54.1125 40.395C51.4498 46.5448 46.5448 51.4498 40.395 54.1125L36.2137 43.6575C39.5128 42.157 42.157 39.5128 43.6575 36.2137L54.1125 40.395ZM19.605 54.1125C13.4552 51.4498 8.55025 46.5448 5.8875 40.395L16.3425 36.2137C17.843 39.5128 20.4872 42.157 23.7862 43.6575L19.605 54.1125ZM54.1125 19.605L43.6575 23.7862C42.157 20.4872 39.5128 17.843 36.2137 16.3425L40.395 5.8875C46.5448 8.55025 51.4498 13.4552 54.1125 19.605ZM23.7862 16.3425C20.4872 17.843 17.843 20.4872 16.3425 23.7862L5.8875 19.605C8.55025 13.4552 13.4552 8.55025 19.605 5.8875L23.7862 16.3425ZM30 41.25C27.0163 41.25 24.1548 40.0647 22.045 37.955C19.9353 35.8452 18.75 32.9837 18.75 30C18.75 27.0163 19.9353 24.1548 22.045 22.045C24.1548 19.9353 27.0163 18.75 30 18.75C32.9837 18.75 35.8452 19.9353 37.955 22.045C40.0647 24.1548 41.25 27.0163 41.25 30C41.25 32.9837 40.0647 35.8452 37.955 37.955C35.8452 40.0647 32.9837 41.25 30 41.25Z" fill="#61A146"/>
</svg>
