<svg width="40" height="40" viewBox="0 0 40 40" fill="none" xmlns="http://www.w3.org/2000/svg">
<path fill-rule="evenodd" clip-rule="evenodd" d="M17.6472 0.128522C10.5157 0.92692 4.17029 5.74086 1.45436 12.4132C0.319234 15.2022 -0.0955856 17.6286 0.0181127 20.8153C0.13234 24.0188 0.672373 26.1454 2.1032 29.0258C4.89059 34.6369 10.0653 38.5065 16.4559 39.7587C18.0972 40.0803 21.7919 40.0805 23.5373 39.7591C30.8064 38.4203 36.8263 33.1315 39.0755 26.108C39.5593 24.5972 39.7906 23.3817 39.9352 21.5885C40.3031 17.0273 39.0987 12.536 36.4634 8.64217C35.5369 7.27309 33.0264 4.69331 31.7437 3.79197C27.5474 0.84356 22.6438 -0.430781 17.6472 0.128522ZM21.0696 6.99019C19.6088 7.20044 18.0075 8.28848 17.2451 9.58889C16.4543 10.9377 16.3503 11.4637 16.2677 14.5303L16.1912 17.3751L13.908 17.4113L11.6247 17.4474V20.0246V22.6016H13.9411H16.2574V28.8866V35.1716H18.9708H21.6842V28.8866V22.6016H23.7171H25.7499L26.1088 20.3191C26.3061 19.0637 26.4996 17.9027 26.5389 17.7389L26.6103 17.4412H24.1472H21.6842L21.685 15.4895C21.6858 13.2416 21.7921 12.7302 22.3771 12.1583C22.9564 11.5922 23.8541 11.3547 25.4144 11.3547H26.7139V9.2495V7.14434L25.6219 7.07091C23.4447 6.92456 21.7363 6.89426 21.0696 6.99019Z" fill="white"/>
</svg>
