<svg width="40" height="40" viewBox="0 0 40 40" fill="none" xmlns="http://www.w3.org/2000/svg">
<path fill-rule="evenodd" clip-rule="evenodd" d="M18.1987 0.0736488C10.2063 0.861057 3.43429 6.23233 0.973734 13.7357C0.239131 15.9757 0 17.5197 0 20.0212C0 22.5227 0.239131 24.0667 0.973734 26.3067C3.21715 33.1482 8.84596 38.1169 16.1314 39.687C18.0861 40.1082 21.9057 40.1036 23.8953 39.6776C32.1378 37.9127 38.2175 31.7423 39.7439 23.5919C40.1115 21.6292 40.0785 18.0069 39.6759 16.1199C38.8308 12.1598 37.0233 8.76198 34.295 6.0046C33.6392 5.34177 32.5661 4.40029 31.9104 3.91243C30.5873 2.9281 27.8249 1.50259 26.2491 0.991056C23.7891 0.192407 20.6378 -0.166779 18.1987 0.0736488ZM12.406 7.46277C9.99258 8.11172 8.02498 10.078 7.38259 12.4831C7.1167 13.4785 7.1277 26.6047 7.39531 27.6082C7.72823 28.8571 8.26172 29.7609 9.24605 30.7435C10.2304 31.7261 11.1357 32.2587 12.3869 32.591C13.4303 32.8684 26.544 32.8684 27.5874 32.591C29.338 32.1259 31.1572 30.7304 31.9449 29.2483C32.8451 27.5546 32.8377 27.6309 32.8377 20.0212C32.8377 13.2898 32.8315 13.1246 32.5443 12.213C31.8079 9.87683 29.9031 8.06701 27.5438 7.46184C26.4279 7.17553 13.4711 7.17632 12.406 7.46277ZM12.7488 9.71232C11.3951 10.1335 10.2464 11.2411 9.72762 12.6251C9.45458 13.3535 9.44901 13.5298 9.48465 20.2036L9.52122 27.0364L9.9531 27.9118C10.4556 28.9307 11.174 29.6303 12.2212 30.1204L12.9657 30.4689H20.0534H27.1411L27.9774 30.0162C29.0159 29.4541 29.8898 28.5019 30.2506 27.539C30.5186 26.8241 30.525 26.6155 30.4895 19.8419C30.4531 12.8823 30.4529 12.8795 30.1488 12.2633C29.661 11.2747 28.8772 10.4891 27.8988 10.0083L27.0147 9.57359L20.1889 9.54741C14.5535 9.52585 13.256 9.55455 12.7488 9.71232ZM25.9762 12.0223C24.888 12.8768 25.4969 14.6642 26.8761 14.6642C27.8819 14.6642 28.6415 13.5836 28.2681 12.6838C27.8949 11.7841 26.7137 11.4432 25.9762 12.0223ZM18.2135 13.2873C16.6023 13.7197 14.8693 15.0251 14.0471 16.4257C12.3995 19.2321 12.8386 22.688 15.1323 24.9659C16.5384 26.3621 18.0172 26.9599 20.0726 26.9627C21.4771 26.9647 22.6072 26.643 23.7061 25.9286C27.5585 23.4242 28.1499 18.3708 24.964 15.1789C23.1767 13.3882 20.5644 12.6562 18.2135 13.2873ZM18.8517 15.6312C17.4793 16.0193 16.4509 16.9028 15.8274 18.2298C15.541 18.8396 15.4828 19.1527 15.4828 20.0873C15.4828 21.0491 15.5361 21.3196 15.8512 21.9605C16.2998 22.8722 17.0996 23.6947 17.9938 24.164C18.5871 24.4754 18.8116 24.515 19.9871 24.5162C21.1266 24.5174 21.4041 24.4724 21.9709 24.1939C22.8115 23.7811 23.6445 22.9492 24.1184 22.0497C24.4499 21.4202 24.4903 21.2076 24.4907 20.0873C24.4913 18.5899 24.2465 17.9382 23.3064 16.9348C22.2193 15.7746 20.3154 15.2176 18.8517 15.6312Z" fill="white"/>
</svg>
