<svg width="40" height="40" viewBox="0 0 40 40" fill="none" xmlns="http://www.w3.org/2000/svg">
<path fill-rule="evenodd" clip-rule="evenodd" d="M17.4528 0.0235442C12.2957 0.776521 7.82219 3.22005 4.67878 7.00093C2.17151 10.0168 0.673835 13.4024 0.135427 17.2723C-0.110067 19.0365 -0.0105291 22.2244 0.342907 23.9153C2.17221 32.6666 9.24364 39.0576 18.0618 39.929C19.4781 40.0689 21.8511 39.9951 23.205 39.7689C29.0061 38.8002 33.9799 35.4492 37.078 30.4225C41.1085 23.8828 40.9574 15.2904 36.699 8.88513C35.8275 7.57424 35.0819 6.69183 33.7915 5.44455C31.0465 2.79117 27.8767 1.12367 23.9164 0.249608C23.1024 0.0699447 22.556 0.0330054 20.3539 0.00854705C18.9234 -0.00725529 17.6179 -0.000511607 17.4528 0.0235442ZM14.1597 10.5802C11.028 12.5412 8.41932 14.1923 8.3625 14.2495C8.29157 14.3208 11.9312 14.3533 20.0038 14.3533C26.9172 14.3533 31.7092 14.3163 31.6533 14.2633C31.4413 14.0624 20.0719 7.00606 19.9671 7.01029C19.9047 7.01281 17.2914 8.61931 14.1597 10.5802ZM7.99916 20.5121V26.5933L8.25255 27.105C8.53256 27.6704 9.01885 28.0634 9.64979 28.2344C10.2397 28.3943 29.7527 28.3861 30.3857 28.2257C31.0266 28.0633 31.7295 27.3562 31.8909 26.7113C32.0515 26.0696 32.0592 14.5547 31.8992 14.5547C31.839 14.5547 29.2462 16.1448 26.1373 18.0883C20.3053 21.7342 20.0296 21.8799 19.493 21.5976C19.2856 21.4884 8.83428 14.9784 8.22424 14.5784L7.99916 14.4308V20.5121Z" fill="white"/>
</svg>
