<svg width="40" height="40" viewBox="0 0 40 40" fill="none" xmlns="http://www.w3.org/2000/svg">
<path fill-rule="evenodd" clip-rule="evenodd" d="M17.2214 0.186239C9.7867 1.20822 3.41115 6.413 1.00111 13.428C0.164595 15.8625 0 16.946 0 20.0136C0 22.3829 0.0421344 22.9756 0.28824 24.0681C0.952208 27.0149 2.18128 29.7125 3.89938 31.9941C10.6347 40.9382 23.3629 42.6489 32.2458 35.804C37.5199 31.7397 40.471 25.0979 39.9384 18.4908C39.5302 13.4289 37.4474 9.05767 33.7695 5.54417C29.3579 1.32979 23.2615 -0.644004 17.2214 0.186239ZM18.4881 7.40816C10.5503 8.34173 5.43313 16.2283 7.83415 23.8279C8.02088 24.4191 8.2935 25.1378 8.43994 25.4251L8.70605 25.9473L8.26726 29.2214C8.02593 31.0222 7.86636 32.5332 7.91261 32.5793C7.95886 32.6255 9.4673 32.4148 11.2648 32.1113L14.5329 31.5595L15.4796 31.9008C16.9572 32.4336 18.1396 32.6284 19.9107 32.6309C23.0873 32.6352 25.6485 31.7376 28.0854 29.7658C29.9126 28.2875 31.6507 25.5657 32.2879 23.185C32.6663 21.7716 32.7033 18.5009 32.3563 17.1246C30.9486 11.5398 26.2971 7.67415 20.6009 7.3553C19.9813 7.32054 19.0306 7.34433 18.4881 7.40816ZM18.613 9.51501C15.7607 9.89888 13.0025 11.534 11.3955 13.7937C8.98066 17.1894 8.70514 21.1806 10.6196 25.035L11.0134 25.8278L10.7322 27.9091C10.4857 29.7338 10.4757 29.9903 10.6518 29.9903C10.7624 29.9903 11.7363 29.837 12.8162 29.6496L14.7794 29.309L15.758 29.7152C17.208 30.3171 18.2954 30.5265 19.9756 30.5274C24.1749 30.5297 27.7202 28.2689 29.5394 24.4286C30.2927 22.8383 30.4722 21.9722 30.4678 19.9476C30.4638 18.0597 30.2996 17.2145 29.6509 15.7399C28.6686 13.507 26.6806 11.4884 24.43 10.4383C22.7358 9.64781 20.3912 9.2757 18.613 9.51501ZM15.4985 14.1547C15.0216 14.4167 14.354 15.1144 14.088 15.6289C13.6307 16.5141 13.6284 17.24 14.079 18.5436C15.1866 21.7473 17.8818 24.5555 21.0001 25.7544C23.4367 26.6914 24.2091 26.5955 25.3685 25.2121C25.7348 24.7749 26.0346 24.2855 26.0346 24.1244C26.0346 23.6409 24.2756 22.194 23.688 22.194C23.5011 22.194 23.0725 22.4774 22.5888 22.9207C22.1528 23.3205 21.6989 23.6475 21.5802 23.6475C21.2015 23.6475 19.7921 22.7049 18.8608 21.829C17.9821 21.0026 17.1244 19.8096 16.7589 18.9058C16.5956 18.5017 16.6017 18.4414 16.8229 18.2802C17.2287 17.9843 17.5509 17.3962 17.5518 16.9498C17.5529 16.4494 16.8624 14.6001 16.5433 14.2483C16.2923 13.9719 15.8963 13.9365 15.4985 14.1547Z" fill="white"/>
</svg>
