<svg width="13" height="15" viewBox="0 0 13 15" fill="none" xmlns="http://www.w3.org/2000/svg">
<path d="M2.52464 1.4375H2.76848H3.02464H9.0739H9.33006H9.5739H9.83006H10.5862C10.8158 1.4375 11.0641 1.54981 11.2664 1.80058C11.471 2.05421 11.5985 2.41718 11.5985 2.8125V3.25H0.5V2.8125C0.5 2.41718 0.627561 2.05421 0.832132 1.80058C1.03439 1.54981 1.28278 1.4375 1.51232 1.4375H2.26848H2.52464ZM0.5 5.1875H11.5985V13.125C11.5985 13.5203 11.471 13.8833 11.2664 14.1369C11.0641 14.3877 10.8158 14.5 10.5862 14.5H1.51232C1.28278 14.5 1.03439 14.3877 0.832132 14.1369C0.627561 13.8833 0.5 13.5203 0.5 13.125V5.1875Z" fill="white" stroke="black"/>
</svg>
