<svg width="68" height="51" viewBox="0 0 68 51" fill="none" xmlns="http://www.w3.org/2000/svg">
<path d="M11.9233 5.11189C11.8471 4.82914 11.8275 4.53417 11.8657 4.24386C11.9038 3.95356 11.999 3.67361 12.1457 3.42006C12.2924 3.1665 12.4877 2.94432 12.7205 2.76623C12.9534 2.58813 13.2191 2.45763 13.5025 2.38218L22.1215 0.0755139C22.4178 -0.00330375 22.7272 -0.0202923 23.0304 0.0256083C23.3336 0.0715089 23.624 0.179313 23.8836 0.342288C24.1432 0.505263 24.3663 0.719907 24.539 0.972817C24.7117 1.22573 24.8303 1.51147 24.8875 1.8122C27.8095 1.46041 30.9101 1.29119 34.0017 1.29119C37.2137 1.29119 40.4391 1.47377 43.4594 1.85227C43.5115 1.54699 43.6269 1.25592 43.7981 0.997665C43.9694 0.739413 44.1927 0.519659 44.4538 0.352445C44.715 0.185231 45.0082 0.0742351 45.3148 0.0265511C45.6213 -0.0211329 45.9345 -0.00445707 46.2342 0.0755139L54.8532 2.38218C55.1821 2.47006 55.4864 2.63192 55.743 2.85535C55.9995 3.07879 56.2014 3.35787 56.3331 3.67122C56.4649 3.98457 56.5231 4.32387 56.5032 4.66312C56.4833 5.00238 56.3858 5.33258 56.2183 5.62844C56.8459 6.03218 57.4005 6.47303 57.8824 6.95099C59.7025 8.76783 61.3621 11.6267 62.7673 14.8418C64.1949 18.1058 65.4396 21.9265 66.3586 25.8229C67.2776 29.7193 67.8754 33.7493 67.9825 37.4275C68.0895 41.0612 67.7192 44.5613 66.5192 47.2687C65.9719 48.4842 65.0539 49.4961 63.8963 50.1598C62.7386 50.8236 61.4004 51.1053 60.0728 50.9647C57.2355 50.6664 55.0986 49.2102 53.323 47.5225C52.23 46.4894 51.1103 45.1802 50.0262 43.9245C49.4641 43.2654 48.9109 42.6242 48.3845 42.0408C45.1368 38.4606 41.26 35.2411 34.0017 35.2411C26.7433 35.2411 22.8666 38.4606 19.6188 42.0408C19.0879 42.6242 18.5392 43.2654 17.9771 43.9245C16.893 45.1802 15.7733 46.485 14.6803 47.5225C12.9047 49.2147 10.7678 50.6664 7.93053 50.9647C6.60291 51.1053 5.26474 50.8236 4.10707 50.1598C2.94939 49.4961 2.03139 48.4842 1.48413 47.2687C0.279609 44.5613 -0.0862076 41.0567 0.0163995 37.4275C0.123468 33.7493 0.730188 29.7238 1.64473 25.8229C2.56373 21.9265 3.81286 18.1058 5.23598 14.8418C6.64125 11.6267 8.30081 8.76783 10.1165 6.95099C10.6986 6.37874 11.3471 5.87794 12.0482 5.45922L11.9233 5.11189ZM21.0062 6.94654C17.0938 7.77035 14.4528 8.91923 13.275 10.0993C12.0437 11.3283 10.6563 13.586 9.32688 16.623C7.92187 19.9273 6.80541 23.3466 5.98992 26.8427C5.13564 30.356 4.62909 33.9445 4.47758 37.5566C4.37943 40.9187 4.75417 43.6484 5.56165 45.4652C5.72701 45.8191 5.99919 46.1124 6.34001 46.3041C6.68083 46.4958 7.07321 46.5761 7.46211 46.534C8.92091 46.3825 10.1834 45.6478 11.6065 44.2985C12.5523 43.399 13.391 42.4149 14.3502 41.2972C14.9435 40.6025 15.5815 39.8589 16.3131 39.0529C19.998 34.9873 24.9812 30.7925 34.0017 30.7925C43.0222 30.7925 48.0053 34.9873 51.6902 39.0529C52.4219 39.8589 53.0598 40.6025 53.6532 41.2972C54.6078 42.4149 55.451 43.399 56.3968 44.2985C57.8154 45.6478 59.0779 46.3825 60.5412 46.5384C60.9306 46.5802 61.3234 46.4992 61.6642 46.3067C62.0051 46.1142 62.277 45.8199 62.4417 45.4652C63.2447 43.6484 63.6239 40.9231 63.5257 37.5566C63.3742 33.9445 62.8677 30.356 62.0134 26.8427C61.1979 23.3466 60.0814 19.9273 58.6764 16.623C57.347 13.586 55.9551 11.3239 54.7283 10.0993C53.5505 8.91923 50.9095 7.77035 46.9971 6.94654C43.2051 6.14944 38.6234 5.74422 34.0017 5.74422C29.3799 5.74422 24.7982 6.14944 21.0062 6.94654Z" fill="#61A146"/>
</svg>
