<svg width="80" height="30" viewBox="0 0 80 30" fill="none" xmlns="http://www.w3.org/2000/svg">
<path d="M15 6.82003e-07C12.3478 6.82003e-07 9.8043 1.05357 7.92893 2.92893C6.05357 4.8043 5 7.34784 5 10V12.5H2.5C1.83696 12.5 1.20107 12.7634 0.732233 13.2322C0.263392 13.7011 0 14.337 0 15C0 15.663 0.263392 16.2989 0.732233 16.7678C1.20107 17.2366 1.83696 17.5 2.5 17.5H5V20C5 22.6522 6.05357 25.1957 7.92893 27.0711C9.8043 28.9464 12.3478 30 15 30H20C23.9782 30 27.7936 28.4196 30.6066 25.6066C33.4196 22.7936 35 18.9782 35 15C35 13.6739 35.5268 12.4022 36.4645 11.4645C37.4021 10.5268 38.6739 10 40 10C41.3261 10 42.5979 10.5268 43.5355 11.4645C44.4732 12.4022 45 13.6739 45 15C45 18.9782 46.5803 22.7936 49.3934 25.6066C52.2064 28.4196 56.0218 30 60 30H65C67.6522 30 70.1957 28.9464 72.0711 27.0711C73.9464 25.1957 75 22.6522 75 20V17.5H77.5C78.163 17.5 78.7989 17.2366 79.2678 16.7678C79.7366 16.2989 80 15.663 80 15C80 14.337 79.7366 13.7011 79.2678 13.2322C78.7989 12.7634 78.163 12.5 77.5 12.5H75V10C75 7.34784 73.9464 4.8043 72.0711 2.92893C70.1957 1.05357 67.6522 6.82003e-07 65 6.82003e-07H55C52.9272 -0.000764641 50.9054 0.642604 49.2142 1.84111C47.523 3.03962 46.2461 4.73404 45.56 6.69C43.9148 5.58871 41.9798 5.00054 40 5C38.0202 5.00054 36.0852 5.58871 34.44 6.69C33.7539 4.73404 32.477 3.03962 30.7858 1.84111C29.0946 0.642604 27.0728 -0.000764641 25 6.82003e-07H15ZM15 5H19.705C21.025 5 21.445 6.78 20.265 7.37L17.98 8.51C16.0459 9.47746 14.4775 11.0459 13.51 12.98L12.37 15.265C11.78 16.445 10 16.025 10 14.7V10C10 8.67392 10.5268 7.40215 11.4645 6.46447C12.4021 5.52679 13.6739 5 15 5Z" fill="#61A146"/>
</svg>
